<?xml version="1.0" standalone="no"?>
<!DOCTYPE svg PUBLIC "-//W3C//DTD SVG 20010904//EN"
 "http://www.w3.org/TR/2001/REC-SVG-20010904/DTD/svg10.dtd">
<svg version="1.0" xmlns="http://www.w3.org/2000/svg"
 width="400.000000pt" height="300.000000pt" viewBox="0 0 400.000000 300.000000"
 preserveAspectRatio="xMidYMid meet">

<g transform="translate(0.000000,300.000000) scale(0.100000,-0.100000)"
fill="#64ffda" stroke="none">
<path d="M1910 2443 c-25 -8 -171 -88 -325 -177 -299 -172 -375 -231 -426
-326 l-24 -45 0 -395 0 -395 24 -48 c33 -67 96 -127 193 -183 423 -245 518
-298 552 -310 45 -16 136 -18 186 -4 38 10 95 42 445 247 289 169 300 177 320
220 23 48 14 124 -19 167 -14 19 -86 69 -169 119 l-144 86 -7 47 c-3 26 -6
103 -6 171 0 183 0 183 -270 338 l-185 107 -60 -4 c-57 -3 -74 -12 -261 -121
-232 -135 -247 -151 -242 -254 4 -76 17 -78 121 -17 409 240 382 232 511 157
204 -118 223 -140 211 -244 -4 -32 -9 -59 -11 -59 -2 0 -45 24 -96 54 -154 88
-177 98 -231 98 -44 -1 -68 -11 -211 -93 -240 -138 -265 -155 -282 -194 -19
-47 -17 -112 5 -160 16 -36 35 -50 213 -152 209 -119 257 -139 311 -129 42 8
375 197 419 238 l33 30 73 -38 c94 -50 119 -72 100 -89 -7 -6 -94 -58 -193
-115 -99 -57 -217 -125 -262 -152 -130 -77 -195 -93 -273 -65 -62 23 -494 278
-533 315 -81 78 -82 79 -85 421 l-3 304 25 51 c40 81 96 126 331 262 273 158
273 158 356 152 64 -5 76 -11 320 -150 394 -225 473 -268 497 -268 20 0 22 5
22 60 0 79 -18 113 -83 154 -139 89 -638 372 -682 388 -62 21 -126 22 -185 1z
m264 -1039 c72 -42 135 -80 141 -85 14 -14 -8 -30 -145 -110 -166 -95 -169
-95 -327 -4 -158 90 -160 92 -148 111 6 8 68 49 139 90 170 97 169 97 340 -2z"/>
</g>
</svg>
